<svg xmlns="http://www.w3.org/2000/svg" viewBox="-2 -66 622 168"><path d="M15 -64V100" fill="none" stroke="#111318" stroke-width="30" stroke-linecap="butt" stroke-linejoin="round"/><path d="M58 0V100" fill="none" stroke="#111318" stroke-width="30" stroke-linecap="butt" stroke-linejoin="round"/><circle cx="58" cy="-36" r="18" fill="#111318"/><path d="M101 0V100M101 50A35 35 0 0 1 171 50V100" fill="none" stroke="#111318" stroke-width="30" stroke-linecap="butt" stroke-linejoin="round"/><path d="M214 50H284A35 35 0 1 0 272.1 76.29" fill="none" stroke="#111318" stroke-width="30" stroke-linecap="butt" stroke-linejoin="round"/><path d="M327 0V100M327 50A35 35 0 0 1 397 50V100" fill="none" stroke="#111318" stroke-width="30" stroke-linecap="butt" stroke-linejoin="round"/><path d="M493 22C483 10 443 6 442 30C441 52 490 46 490 70C490 96 443 98 435 80" fill="none" stroke="#111318" stroke-width="30" stroke-linecap="butt" stroke-linejoin="round"/><path d="M533 50H603A35 35 0 1 0 591.1 76.29" fill="none" stroke="#111318" stroke-width="30" stroke-linecap="butt" stroke-linejoin="round"/><path d="M233 44V22L239 18L269 44Z" fill="#fff"/><rect x="229" y="44" width="44" height="12" fill="#fff"/></svg>