<svg xmlns="http://www.w3.org/2000/svg" viewBox="0 0 491 100"><defs><mask id="es13"><rect x="-5" y="-5" width="501" height="110" fill="#fff"/><rect x="8" y="-5" width="5" height="110" fill="#000"/><rect x="45" y="-5" width="5" height="110" fill="#000"/><rect x="82" y="-5" width="5" height="110" fill="#000"/><rect x="119" y="-5" width="5" height="110" fill="#000"/><rect x="156" y="-5" width="5" height="110" fill="#000"/><rect x="193" y="-5" width="5" height="110" fill="#000"/><rect x="230" y="-5" width="5" height="110" fill="#000"/><rect x="267" y="-5" width="5" height="110" fill="#000"/><rect x="304" y="-5" width="5" height="110" fill="#000"/><rect x="341" y="-5" width="5" height="110" fill="#000"/><rect x="378" y="-5" width="5" height="110" fill="#000"/><rect x="415" y="-5" width="5" height="110" fill="#000"/><rect x="452" y="-5" width="5" height="110" fill="#000"/><rect x="489" y="-5" width="5" height="110" fill="#000"/></mask></defs><g mask="url(#es13)"><rect x="0" y="0" width="22" height="100" fill="#111318"/><rect x="56" y="0" width="22" height="100" fill="#111318"/><rect x="93" y="0" width="22" height="100" fill="#111318"/><rect x="149" y="0" width="22" height="100" fill="#111318"/><polygon points="93,0 120.5,0 171,100 143.5,100" fill="#111318"/><rect x="186" y="0" width="22" height="100" fill="#111318"/><rect x="186" y="0" width="58" height="22" fill="#111318"/><rect x="186" y="39" width="48" height="22" fill="#111318"/><rect x="259" y="0" width="22" height="100" fill="#111318"/><rect x="315" y="0" width="22" height="100" fill="#111318"/><polygon points="259,0 286.5,0 337,100 309.5,100" fill="#111318"/><path d="M407 11H382.5A19.5 19.5 0 0 0 382.5 50H387.5A19.5 19.5 0 0 1 387.5 89H363" fill="none" stroke="#111318" stroke-width="22" stroke-linecap="butt" stroke-linejoin="miter" stroke-miterlimit="10"/><rect x="433" y="0" width="22" height="100" fill="#111318"/><rect x="433" y="0" width="58" height="22" fill="#111318"/><rect x="433" y="39" width="48" height="22" fill="#111318"/><rect x="0" y="78" width="491" height="22" fill="#111318"/></g></svg>